<?xml version="1.0" encoding="utf-8" ?>
<svg baseProfile="full" height="1027.5590300000001" version="1.1" width="3614.17314" xmlns="http://www.w3.org/2000/svg" xmlns:ev="http://www.w3.org/2001/xml-events" xmlns:xlink="http://www.w3.org/1999/xlink"><defs /><rect fill="white" height="1027.5590300000001" opacity="1" stroke-width="0" width="3614.17314" x="0.0" y="0.0" /><g><g id="vlines" stroke="lightgray"><line x1="0.0" x2="0.0" y1="70.86614" y2="992.1259600000001" /><text fill="#800000" font-family="Verdana" font-size="18" font-weight="bold" stroke="#800000" stroke-width="0" x="3.543307" y="35.43307">December</text><text fill="black" font-family="Verdana" font-size="16" font-weight="bold" stroke="black" stroke-width="0" x="3.543307" y="53.149605">48</text><line x1="35.43307" x2="35.43307" y1="70.86614" y2="992.1259600000001" /><text fill="black" font-family="Verdana" font-size="16" font-weight="bold" stroke="black" stroke-width="0" x="38.976377" y="53.149605">49</text><line x1="70.86614" x2="70.86614" y1="70.86614" y2="992.1259600000001" /><text fill="black" font-family="Verdana" font-size="16" font-weight="bold" stroke="black" stroke-width="0" x="74.409447" y="53.149605">50</text><line x1="106.29921" x2="106.29921" y1="70.86614" y2="992.1259600000001" /><text fill="black" font-family="Verdana" font-size="16" font-weight="bold" stroke="black" stroke-width="0" x="109.842517" y="53.149605">51</text><line x1="141.73228" x2="141.73228" y1="70.86614" y2="992.1259600000001" /><text fill="black" font-family="Verdana" font-size="16" font-weight="bold" stroke="black" stroke-width="0" x="145.275587" y="53.149605">52</text><line x1="177.16535" x2="177.16535" y1="70.86614" y2="992.1259600000001" /><text fill="#400000" font-family="Verdana" font-size="20" font-weight="bold" stroke="#400000" stroke-width="0" x="180.708657" y="17.716535">2023</text><text fill="#800000" font-family="Verdana" font-size="18" font-weight="bold" stroke="#800000" stroke-width="0" x="180.708657" y="35.43307">January</text><text fill="black" font-family="Verdana" font-size="16" font-weight="bold" stroke="black" stroke-width="0" x="180.708657" y="53.149605">01</text><line x1="212.59842" x2="212.59842" y1="70.86614" y2="992.1259600000001" /><text fill="black" font-family="Verdana" font-size="16" font-weight="bold" stroke="black" stroke-width="0" x="216.141727" y="53.149605">02</text><line x1="248.03149000000002" x2="248.03149000000002" y1="70.86614" y2="992.1259600000001" /><text fill="black" font-family="Verdana" font-size="16" font-weight="bold" stroke="black" stroke-width="0" x="251.574797" y="53.149605">03</text><line x1="283.46456" x2="283.46456" y1="70.86614" y2="992.1259600000001" /><text fill="black" font-family="Verdana" font-size="16" font-weight="bold" stroke="black" stroke-width="0" x="287.007867" y="53.149605">04</text><line x1="318.89763" x2="318.89763" y1="70.86614" y2="992.1259600000001" /><text fill="#800000" font-family="Verdana" font-size="18" font-weight="bold" stroke="#800000" stroke-width="0" x="322.440937" y="35.43307">February</text><text fill="black" font-family="Verdana" font-size="16" font-weight="bold" stroke="black" stroke-width="0" x="322.440937" y="53.149605">05</text><line x1="354.3307" x2="354.3307" y1="70.86614" y2="992.1259600000001" /><text fill="black" font-family="Verdana" font-size="16" font-weight="bold" stroke="black" stroke-width="0" x="357.874007" y="53.149605">06</text><line x1="389.76377" x2="389.76377" y1="70.86614" y2="992.1259600000001" /><text fill="black" font-family="Verdana" font-size="16" font-weight="bold" stroke="black" stroke-width="0" x="393.307077" y="53.149605">07</text><line x1="425.19684" x2="425.19684" y1="70.86614" y2="992.1259600000001" /><text fill="black" font-family="Verdana" font-size="16" font-weight="bold" stroke="black" stroke-width="0" x="428.740147" y="53.149605">08</text><line x1="460.62991" x2="460.62991" y1="70.86614" y2="992.1259600000001" /><text fill="#800000" font-family="Verdana" font-size="18" font-weight="bold" stroke="#800000" stroke-width="0" x="464.173217" y="35.43307">March</text><text fill="black" font-family="Verdana" font-size="16" font-weight="bold" stroke="black" stroke-width="0" x="464.173217" y="53.149605">09</text><line x1="496.06298000000004" x2="496.06298000000004" y1="70.86614" y2="992.1259600000001" /><text fill="black" font-family="Verdana" font-size="16" font-weight="bold" stroke="black" stroke-width="0" x="499.606287" y="53.149605">10</text><line x1="531.49605" x2="531.49605" y1="70.86614" y2="992.1259600000001" /><text fill="black" font-family="Verdana" font-size="16" font-weight="bold" stroke="black" stroke-width="0" x="535.039357" y="53.149605">11</text><line x1="566.92912" x2="566.92912" y1="70.86614" y2="992.1259600000001" /><text fill="black" font-family="Verdana" font-size="16" font-weight="bold" stroke="black" stroke-width="0" x="570.472427" y="53.149605">12</text><line x1="602.36219" x2="602.36219" y1="70.86614" y2="992.1259600000001" /><text fill="black" font-family="Verdana" font-size="16" font-weight="bold" stroke="black" stroke-width="0" x="605.905497" y="53.149605">13</text><line x1="637.79526" x2="637.79526" y1="70.86614" y2="992.1259600000001" /><text fill="#800000" font-family="Verdana" font-size="18" font-weight="bold" stroke="#800000" stroke-width="0" x="641.338567" y="35.43307">April</text><text fill="black" font-family="Verdana" font-size="16" font-weight="bold" stroke="black" stroke-width="0" x="641.338567" y="53.149605">14</text><line x1="673.22833" x2="673.22833" y1="70.86614" y2="992.1259600000001" /><text fill="black" font-family="Verdana" font-size="16" font-weight="bold" stroke="black" stroke-width="0" x="676.7716369999999" y="53.149605">15</text><line x1="708.6614" x2="708.6614" y1="70.86614" y2="992.1259600000001" /><text fill="black" font-family="Verdana" font-size="16" font-weight="bold" stroke="black" stroke-width="0" x="712.204707" y="53.149605">16</text><line x1="744.09447" x2="744.09447" y1="70.86614" y2="992.1259600000001" /><text fill="black" font-family="Verdana" font-size="16" font-weight="bold" stroke="black" stroke-width="0" x="747.637777" y="53.149605">17</text><line x1="779.52754" x2="779.52754" y1="70.86614" y2="992.1259600000001" /><text fill="#800000" font-family="Verdana" font-size="18" font-weight="bold" stroke="#800000" stroke-width="0" x="783.070847" y="35.43307">May</text><text fill="black" font-family="Verdana" font-size="16" font-weight="bold" stroke="black" stroke-width="0" x="783.070847" y="53.149605">18</text><line x1="814.96061" x2="814.96061" y1="70.86614" y2="992.1259600000001" /><text fill="black" font-family="Verdana" font-size="16" font-weight="bold" stroke="black" stroke-width="0" x="818.503917" y="53.149605">19</text><line x1="850.39368" x2="850.39368" y1="70.86614" y2="992.1259600000001" /><text fill="black" font-family="Verdana" font-size="16" font-weight="bold" stroke="black" stroke-width="0" x="853.936987" y="53.149605">20</text><line x1="885.8267500000001" x2="885.8267500000001" y1="70.86614" y2="992.1259600000001" /><text fill="black" font-family="Verdana" font-size="16" font-weight="bold" stroke="black" stroke-width="0" x="889.370057" y="53.149605">21</text><line x1="921.25982" x2="921.25982" y1="70.86614" y2="992.1259600000001" /><text fill="#800000" font-family="Verdana" font-size="18" font-weight="bold" stroke="#800000" stroke-width="0" x="924.803127" y="35.43307">June</text><text fill="black" font-family="Verdana" font-size="16" font-weight="bold" stroke="black" stroke-width="0" x="924.803127" y="53.149605">22</text><line x1="956.69289" x2="956.69289" y1="70.86614" y2="992.1259600000001" /><text fill="black" font-family="Verdana" font-size="16" font-weight="bold" stroke="black" stroke-width="0" x="960.236197" y="53.149605">23</text><line x1="992.1259600000001" x2="992.1259600000001" y1="70.86614" y2="992.1259600000001" /><text fill="black" font-family="Verdana" font-size="16" font-weight="bold" stroke="black" stroke-width="0" x="995.669267" y="53.149605">24</text><line x1="1027.5590300000001" x2="1027.5590300000001" y1="70.86614" y2="992.1259600000001" /><text fill="black" font-family="Verdana" font-size="16" font-weight="bold" stroke="black" stroke-width="0" x="1031.102337" y="53.149605">25</text><line x1="1062.9921" x2="1062.9921" y1="70.86614" y2="992.1259600000001" /><text fill="black" font-family="Verdana" font-size="16" font-weight="bold" stroke="black" stroke-width="0" x="1066.535407" y="53.149605">26</text><line x1="1098.42517" x2="1098.42517" y1="70.86614" y2="992.1259600000001" /><text fill="#800000" font-family="Verdana" font-size="18" font-weight="bold" stroke="#800000" stroke-width="0" x="1101.968477" y="35.43307">July</text><text fill="black" font-family="Verdana" font-size="16" font-weight="bold" stroke="black" stroke-width="0" x="1101.968477" y="53.149605">27</text><line x1="1133.85824" x2="1133.85824" y1="70.86614" y2="992.1259600000001" /><text fill="black" font-family="Verdana" font-size="16" font-weight="bold" stroke="black" stroke-width="0" x="1137.401547" y="53.149605">28</text><line x1="1169.29131" x2="1169.29131" y1="70.86614" y2="992.1259600000001" /><text fill="black" font-family="Verdana" font-size="16" font-weight="bold" stroke="black" stroke-width="0" x="1172.834617" y="53.149605">29</text><line x1="1204.72438" x2="1204.72438" y1="70.86614" y2="992.1259600000001" /><text fill="black" font-family="Verdana" font-size="16" font-weight="bold" stroke="black" stroke-width="0" x="1208.267687" y="53.149605">30</text><line x1="1240.15745" x2="1240.15745" y1="70.86614" y2="992.1259600000001" /><text fill="#800000" font-family="Verdana" font-size="18" font-weight="bold" stroke="#800000" stroke-width="0" x="1243.700757" y="35.43307">August</text><text fill="black" font-family="Verdana" font-size="16" font-weight="bold" stroke="black" stroke-width="0" x="1243.700757" y="53.149605">31</text><line x1="1275.59052" x2="1275.59052" y1="70.86614" y2="992.1259600000001" /><text fill="black" font-family="Verdana" font-size="16" font-weight="bold" stroke="black" stroke-width="0" x="1279.1338269999999" y="53.149605">32</text><line x1="1311.02359" x2="1311.02359" y1="70.86614" y2="992.1259600000001" /><text fill="black" font-family="Verdana" font-size="16" font-weight="bold" stroke="black" stroke-width="0" x="1314.566897" y="53.149605">33</text><line x1="1346.45666" x2="1346.45666" y1="70.86614" y2="992.1259600000001" /><text fill="black" font-family="Verdana" font-size="16" font-weight="bold" stroke="black" stroke-width="0" x="1349.999967" y="53.149605">34</text><line x1="1381.88973" x2="1381.88973" y1="70.86614" y2="992.1259600000001" /><text fill="black" font-family="Verdana" font-size="16" font-weight="bold" stroke="black" stroke-width="0" x="1385.433037" y="53.149605">35</text><line x1="1417.3228" x2="1417.3228" y1="70.86614" y2="992.1259600000001" /><text fill="#800000" font-family="Verdana" font-size="18" font-weight="bold" stroke="#800000" stroke-width="0" x="1420.866107" y="35.43307">September</text><text fill="black" font-family="Verdana" font-size="16" font-weight="bold" stroke="black" stroke-width="0" x="1420.866107" y="53.149605">36</text><line x1="1452.75587" x2="1452.75587" y1="70.86614" y2="992.1259600000001" /><text fill="black" font-family="Verdana" font-size="16" font-weight="bold" stroke="black" stroke-width="0" x="1456.299177" y="53.149605">37</text><line x1="1488.18894" x2="1488.18894" y1="70.86614" y2="992.1259600000001" /><text fill="black" font-family="Verdana" font-size="16" font-weight="bold" stroke="black" stroke-width="0" x="1491.732247" y="53.149605">38</text><line x1="1523.62201" x2="1523.62201" y1="70.86614" y2="992.1259600000001" /><text fill="black" font-family="Verdana" font-size="16" font-weight="bold" stroke="black" stroke-width="0" x="1527.165317" y="53.149605">39</text><line x1="1559.05508" x2="1559.05508" y1="70.86614" y2="992.1259600000001" /><text fill="#800000" font-family="Verdana" font-size="18" font-weight="bold" stroke="#800000" stroke-width="0" x="1562.598387" y="35.43307">October</text><text fill="black" font-family="Verdana" font-size="16" font-weight="bold" stroke="black" stroke-width="0" x="1562.598387" y="53.149605">40</text><line x1="1594.4881500000001" x2="1594.4881500000001" y1="70.86614" y2="992.1259600000001" /><text fill="black" font-family="Verdana" font-size="16" font-weight="bold" stroke="black" stroke-width="0" x="1598.031457" y="53.149605">41</text><line x1="1629.92122" x2="1629.92122" y1="70.86614" y2="992.1259600000001" /><text fill="black" font-family="Verdana" font-size="16" font-weight="bold" stroke="black" stroke-width="0" x="1633.464527" y="53.149605">42</text><line x1="1665.35429" x2="1665.35429" y1="70.86614" y2="992.1259600000001" /><text fill="black" font-family="Verdana" font-size="16" font-weight="bold" stroke="black" stroke-width="0" x="1668.897597" y="53.149605">43</text><line x1="1700.78736" x2="1700.78736" y1="70.86614" y2="992.1259600000001" /><text fill="#800000" font-family="Verdana" font-size="18" font-weight="bold" stroke="#800000" stroke-width="0" x="1704.330667" y="35.43307">November</text><text fill="black" font-family="Verdana" font-size="16" font-weight="bold" stroke="black" stroke-width="0" x="1704.330667" y="53.149605">44</text><line x1="1736.22043" x2="1736.22043" y1="70.86614" y2="992.1259600000001" /><text fill="black" font-family="Verdana" font-size="16" font-weight="bold" stroke="black" stroke-width="0" x="1739.763737" y="53.149605">45</text><line x1="1771.6535000000001" x2="1771.6535000000001" y1="70.86614" y2="992.1259600000001" /><text fill="black" font-family="Verdana" font-size="16" font-weight="bold" stroke="black" stroke-width="0" x="1775.196807" y="53.149605">46</text><line x1="1807.08657" x2="1807.08657" y1="70.86614" y2="992.1259600000001" /><text fill="black" font-family="Verdana" font-size="16" font-weight="bold" stroke="black" stroke-width="0" x="1810.629877" y="53.149605">47</text><line x1="1842.51964" x2="1842.51964" y1="70.86614" y2="992.1259600000001" /><text fill="black" font-family="Verdana" font-size="16" font-weight="bold" stroke="black" stroke-width="0" x="1846.062947" y="53.149605">48</text><line x1="1877.95271" x2="1877.95271" y1="70.86614" y2="992.1259600000001" /><text fill="#800000" font-family="Verdana" font-size="18" font-weight="bold" stroke="#800000" stroke-width="0" x="1881.496017" y="35.43307">December</text><text fill="black" font-family="Verdana" font-size="16" font-weight="bold" stroke="black" stroke-width="0" x="1881.496017" y="53.149605">49</text><line x1="1913.38578" x2="1913.38578" y1="70.86614" y2="992.1259600000001" /><text fill="black" font-family="Verdana" font-size="16" font-weight="bold" stroke="black" stroke-width="0" x="1916.929087" y="53.149605">50</text><line x1="1948.81885" x2="1948.81885" y1="70.86614" y2="992.1259600000001" /><text fill="black" font-family="Verdana" font-size="16" font-weight="bold" stroke="black" stroke-width="0" x="1952.362157" y="53.149605">51</text><line x1="1984.2519200000002" x2="1984.2519200000002" y1="70.86614" y2="992.1259600000001" /><text fill="black" font-family="Verdana" font-size="16" font-weight="bold" stroke="black" stroke-width="0" x="1987.795227" y="53.149605">52</text><line x1="2019.68499" x2="2019.68499" y1="70.86614" y2="992.1259600000001" /><text fill="#400000" font-family="Verdana" font-size="20" font-weight="bold" stroke="#400000" stroke-width="0" x="2023.2282969999999" y="17.716535">2024</text><text fill="#800000" font-family="Verdana" font-size="18" font-weight="bold" stroke="#800000" stroke-width="0" x="2023.2282969999999" y="35.43307">January</text><text fill="black" font-family="Verdana" font-size="16" font-weight="bold" stroke="black" stroke-width="0" x="2023.2282969999999" y="53.149605">01</text><line x1="2055.1180600000002" x2="2055.1180600000002" y1="70.86614" y2="992.1259600000001" /><text fill="black" font-family="Verdana" font-size="16" font-weight="bold" stroke="black" stroke-width="0" x="2058.661367" y="53.149605">02</text><line x1="2090.55113" x2="2090.55113" y1="70.86614" y2="992.1259600000001" /><text fill="black" font-family="Verdana" font-size="16" font-weight="bold" stroke="black" stroke-width="0" x="2094.094437" y="53.149605">03</text><line x1="2125.9842" x2="2125.9842" y1="70.86614" y2="992.1259600000001" /><text fill="black" font-family="Verdana" font-size="16" font-weight="bold" stroke="black" stroke-width="0" x="2129.527507" y="53.149605">04</text><line x1="2161.41727" x2="2161.41727" y1="70.86614" y2="992.1259600000001" /><text fill="#800000" font-family="Verdana" font-size="18" font-weight="bold" stroke="#800000" stroke-width="0" x="2164.960577" y="35.43307">February</text><text fill="black" font-family="Verdana" font-size="16" font-weight="bold" stroke="black" stroke-width="0" x="2164.960577" y="53.149605">05</text><line x1="2196.85034" x2="2196.85034" y1="70.86614" y2="992.1259600000001" /><text fill="black" font-family="Verdana" font-size="16" font-weight="bold" stroke="black" stroke-width="0" x="2200.393647" y="53.149605">06</text><line x1="2232.28341" x2="2232.28341" y1="70.86614" y2="992.1259600000001" /><text fill="black" font-family="Verdana" font-size="16" font-weight="bold" stroke="black" stroke-width="0" x="2235.826717" y="53.149605">07</text><line x1="2267.71648" x2="2267.71648" y1="70.86614" y2="992.1259600000001" /><text fill="black" font-family="Verdana" font-size="16" font-weight="bold" stroke="black" stroke-width="0" x="2271.259787" y="53.149605">08</text><line x1="2303.14955" x2="2303.14955" y1="70.86614" y2="992.1259600000001" /><text fill="black" font-family="Verdana" font-size="16" font-weight="bold" stroke="black" stroke-width="0" x="2306.692857" y="53.149605">09</text><line x1="2338.58262" x2="2338.58262" y1="70.86614" y2="992.1259600000001" /><text fill="#800000" font-family="Verdana" font-size="18" font-weight="bold" stroke="#800000" stroke-width="0" x="2342.125927" y="35.43307">March</text><text fill="black" font-family="Verdana" font-size="16" font-weight="bold" stroke="black" stroke-width="0" x="2342.125927" y="53.149605">10</text><line x1="2374.01569" x2="2374.01569" y1="70.86614" y2="992.1259600000001" /><text fill="black" font-family="Verdana" font-size="16" font-weight="bold" stroke="black" stroke-width="0" x="2377.558997" y="53.149605">11</text><line x1="2409.44876" x2="2409.44876" y1="70.86614" y2="992.1259600000001" /><text fill="black" font-family="Verdana" font-size="16" font-weight="bold" stroke="black" stroke-width="0" x="2412.992067" y="53.149605">12</text><line x1="2444.8818300000003" x2="2444.8818300000003" y1="70.86614" y2="992.1259600000001" /><text fill="black" font-family="Verdana" font-size="16" font-weight="bold" stroke="black" stroke-width="0" x="2448.425137" y="53.149605">13</text><line x1="2480.3149" x2="2480.3149" y1="70.86614" y2="992.1259600000001" /><text fill="#800000" font-family="Verdana" font-size="18" font-weight="bold" stroke="#800000" stroke-width="0" x="2483.8582069999998" y="35.43307">April</text><text fill="black" font-family="Verdana" font-size="16" font-weight="bold" stroke="black" stroke-width="0" x="2483.8582069999998" y="53.149605">14</text><line x1="2515.74797" x2="2515.74797" y1="70.86614" y2="992.1259600000001" /><text fill="black" font-family="Verdana" font-size="16" font-weight="bold" stroke="black" stroke-width="0" x="2519.291277" y="53.149605">15</text><line x1="2551.18104" x2="2551.18104" y1="70.86614" y2="992.1259600000001" /><text fill="black" font-family="Verdana" font-size="16" font-weight="bold" stroke="black" stroke-width="0" x="2554.724347" y="53.149605">16</text><line x1="2586.61411" x2="2586.61411" y1="70.86614" y2="992.1259600000001" /><text fill="black" font-family="Verdana" font-size="16" font-weight="bold" stroke="black" stroke-width="0" x="2590.157417" y="53.149605">17</text><line x1="2622.04718" x2="2622.04718" y1="70.86614" y2="992.1259600000001" /><text fill="#800000" font-family="Verdana" font-size="18" font-weight="bold" stroke="#800000" stroke-width="0" x="2625.590487" y="35.43307">May</text><text fill="black" font-family="Verdana" font-size="16" font-weight="bold" stroke="black" stroke-width="0" x="2625.590487" y="53.149605">18</text><line x1="2657.48025" x2="2657.48025" y1="70.86614" y2="992.1259600000001" /><text fill="black" font-family="Verdana" font-size="16" font-weight="bold" stroke="black" stroke-width="0" x="2661.023557" y="53.149605">19</text><line x1="2692.91332" x2="2692.91332" y1="70.86614" y2="992.1259600000001" /><text fill="black" font-family="Verdana" font-size="16" font-weight="bold" stroke="black" stroke-width="0" x="2696.456627" y="53.149605">20</text><line x1="2728.34639" x2="2728.34639" y1="70.86614" y2="992.1259600000001" /><text fill="black" font-family="Verdana" font-size="16" font-weight="bold" stroke="black" stroke-width="0" x="2731.889697" y="53.149605">21</text><line x1="2763.77946" x2="2763.77946" y1="70.86614" y2="992.1259600000001" /><text fill="black" font-family="Verdana" font-size="16" font-weight="bold" stroke="black" stroke-width="0" x="2767.322767" y="53.149605">22</text><line x1="2799.2125300000002" x2="2799.2125300000002" y1="70.86614" y2="992.1259600000001" /><text fill="#800000" font-family="Verdana" font-size="18" font-weight="bold" stroke="#800000" stroke-width="0" x="2802.755837" y="35.43307">June</text><text fill="black" font-family="Verdana" font-size="16" font-weight="bold" stroke="black" stroke-width="0" x="2802.755837" y="53.149605">23</text><line x1="2834.6456" x2="2834.6456" y1="70.86614" y2="992.1259600000001" /><text fill="black" font-family="Verdana" font-size="16" font-weight="bold" stroke="black" stroke-width="0" x="2838.188907" y="53.149605">24</text><line x1="2870.07867" x2="2870.07867" y1="70.86614" y2="992.1259600000001" /><text fill="black" font-family="Verdana" font-size="16" font-weight="bold" stroke="black" stroke-width="0" x="2873.621977" y="53.149605">25</text><line x1="2905.51174" x2="2905.51174" y1="70.86614" y2="992.1259600000001" /><text fill="black" font-family="Verdana" font-size="16" font-weight="bold" stroke="black" stroke-width="0" x="2909.055047" y="53.149605">26</text><line x1="2940.94481" x2="2940.94481" y1="70.86614" y2="992.1259600000001" /><text fill="#800000" font-family="Verdana" font-size="18" font-weight="bold" stroke="#800000" stroke-width="0" x="2944.488117" y="35.43307">July</text><text fill="black" font-family="Verdana" font-size="16" font-weight="bold" stroke="black" stroke-width="0" x="2944.488117" y="53.149605">27</text><line x1="2976.37788" x2="2976.37788" y1="70.86614" y2="992.1259600000001" /><text fill="black" font-family="Verdana" font-size="16" font-weight="bold" stroke="black" stroke-width="0" x="2979.921187" y="53.149605">28</text><line x1="3011.81095" x2="3011.81095" y1="70.86614" y2="992.1259600000001" /><text fill="black" font-family="Verdana" font-size="16" font-weight="bold" stroke="black" stroke-width="0" x="3015.354257" y="53.149605">29</text><line x1="3047.24402" x2="3047.24402" y1="70.86614" y2="992.1259600000001" /><text fill="black" font-family="Verdana" font-size="16" font-weight="bold" stroke="black" stroke-width="0" x="3050.787327" y="53.149605">30</text><line x1="3082.67709" x2="3082.67709" y1="70.86614" y2="992.1259600000001" /><text fill="#800000" font-family="Verdana" font-size="18" font-weight="bold" stroke="#800000" stroke-width="0" x="3086.220397" y="35.43307">August</text><text fill="black" font-family="Verdana" font-size="16" font-weight="bold" stroke="black" stroke-width="0" x="3086.220397" y="53.149605">31</text><line x1="3118.11016" x2="3118.11016" y1="70.86614" y2="992.1259600000001" /><text fill="black" font-family="Verdana" font-size="16" font-weight="bold" stroke="black" stroke-width="0" x="3121.653467" y="53.149605">32</text><line x1="3153.54323" x2="3153.54323" y1="70.86614" y2="992.1259600000001" /><text fill="black" font-family="Verdana" font-size="16" font-weight="bold" stroke="black" stroke-width="0" x="3157.086537" y="53.149605">33</text><line x1="3188.9763000000003" x2="3188.9763000000003" y1="70.86614" y2="992.1259600000001" /><text fill="black" font-family="Verdana" font-size="16" font-weight="bold" stroke="black" stroke-width="0" x="3192.519607" y="53.149605">34</text><line x1="3224.40937" x2="3224.40937" y1="70.86614" y2="992.1259600000001" /><text fill="black" font-family="Verdana" font-size="16" font-weight="bold" stroke="black" stroke-width="0" x="3227.9526769999998" y="53.149605">35</text><line x1="3259.84244" x2="3259.84244" y1="70.86614" y2="992.1259600000001" /><text fill="#800000" font-family="Verdana" font-size="18" font-weight="bold" stroke="#800000" stroke-width="0" x="3263.385747" y="35.43307">September</text><text fill="black" font-family="Verdana" font-size="16" font-weight="bold" stroke="black" stroke-width="0" x="3263.385747" y="53.149605">36</text><line x1="3295.27551" x2="3295.27551" y1="70.86614" y2="992.1259600000001" /><text fill="black" font-family="Verdana" font-size="16" font-weight="bold" stroke="black" stroke-width="0" x="3298.818817" y="53.149605">37</text><line x1="3330.70858" x2="3330.70858" y1="70.86614" y2="992.1259600000001" /><text fill="black" font-family="Verdana" font-size="16" font-weight="bold" stroke="black" stroke-width="0" x="3334.251887" y="53.149605">38</text><line x1="3366.14165" x2="3366.14165" y1="70.86614" y2="992.1259600000001" /><text fill="black" font-family="Verdana" font-size="16" font-weight="bold" stroke="black" stroke-width="0" x="3369.684957" y="53.149605">39</text><line x1="3401.57472" x2="3401.57472" y1="70.86614" y2="992.1259600000001" /><text fill="#800000" font-family="Verdana" font-size="18" font-weight="bold" stroke="#800000" stroke-width="0" x="3405.118027" y="35.43307">October</text><text fill="black" font-family="Verdana" font-size="16" font-weight="bold" stroke="black" stroke-width="0" x="3405.118027" y="53.149605">40</text><line x1="3437.00779" x2="3437.00779" y1="70.86614" y2="992.1259600000001" /><text fill="black" font-family="Verdana" font-size="16" font-weight="bold" stroke="black" stroke-width="0" x="3440.551097" y="53.149605">41</text><line x1="3472.44086" x2="3472.44086" y1="70.86614" y2="992.1259600000001" /><text fill="black" font-family="Verdana" font-size="16" font-weight="bold" stroke="black" stroke-width="0" x="3475.984167" y="53.149605">42</text><line x1="3507.87393" x2="3507.87393" y1="70.86614" y2="992.1259600000001" /><text fill="black" font-family="Verdana" font-size="16" font-weight="bold" stroke="black" stroke-width="0" x="3511.417237" y="53.149605">43</text><line x1="3543.3070000000002" x2="3543.3070000000002" y1="70.86614" y2="992.1259600000001" /><text fill="black" font-family="Verdana" font-size="16" font-weight="bold" stroke="black" stroke-width="0" x="3546.850307" y="53.149605">44</text><line x1="3578.7400700000003" x2="3578.7400700000003" y1="70.86614" y2="992.1259600000001" /><text fill="#800000" font-family="Verdana" font-size="18" font-weight="bold" stroke="#800000" stroke-width="0" x="3582.283377" y="35.43307">November</text><text fill="black" font-family="Verdana" font-size="16" font-weight="bold" stroke="black" stroke-width="0" x="3582.283377" y="53.149605">45</text><line x1="3614.17314" x2="3614.17314" y1="70.86614" y2="992.1259600000001" /></g><g id="hlines" stroke="lightgray"><line x1="0.0" x2="3614.17314" y1="70.86614" y2="70.86614" /><line x1="0.0" x2="3614.17314" y1="106.29921" y2="106.29921" /><line x1="0.0" x2="3614.17314" y1="141.73228" y2="141.73228" /><line x1="0.0" x2="3614.17314" y1="177.16535" y2="177.16535" /><line x1="0.0" x2="3614.17314" y1="212.59842" y2="212.59842" /><line x1="0.0" x2="3614.17314" y1="248.03149000000002" y2="248.03149000000002" /><line x1="0.0" x2="3614.17314" y1="283.46456" y2="283.46456" /><line x1="0.0" x2="3614.17314" y1="318.89763" y2="318.89763" /><line x1="0.0" x2="3614.17314" y1="354.3307" y2="354.3307" /><line x1="0.0" x2="3614.17314" y1="389.76377" y2="389.76377" /><line x1="0.0" x2="3614.17314" y1="425.19684" y2="425.19684" /><line x1="0.0" x2="3614.17314" y1="460.62991" y2="460.62991" /><line x1="0.0" x2="3614.17314" y1="496.06298000000004" y2="496.06298000000004" /><line x1="0.0" x2="3614.17314" y1="531.49605" y2="531.49605" /><line x1="0.0" x2="3614.17314" y1="566.92912" y2="566.92912" /><line x1="0.0" x2="3614.17314" y1="602.36219" y2="602.36219" /><line x1="0.0" x2="3614.17314" y1="637.79526" y2="637.79526" /><line x1="0.0" x2="3614.17314" y1="673.22833" y2="673.22833" /><line x1="0.0" x2="3614.17314" y1="708.6614" y2="708.6614" /><line x1="0.0" x2="3614.17314" y1="744.09447" y2="744.09447" /><line x1="0.0" x2="3614.17314" y1="779.52754" y2="779.52754" /><line x1="0.0" x2="3614.17314" y1="814.96061" y2="814.96061" /><line x1="0.0" x2="3614.17314" y1="850.39368" y2="850.39368" /><line x1="0.0" x2="3614.17314" y1="885.8267500000001" y2="885.8267500000001" /><line x1="0.0" x2="3614.17314" y1="921.25982" y2="921.25982" /><line x1="0.0" x2="3614.17314" y1="956.69289" y2="956.69289" /><line x1="0.0" x2="3614.17314" y1="992.1259600000001" y2="992.1259600000001" /></g><line stroke="black" x1="0.0" x2="3614.17314" y1="70.86614" y2="70.86614" /><line stroke="black" x1="0.0" x2="3614.17314" y1="992.1259600000001" y2="992.1259600000001" /></g><g><g><text fill="black" font-family="Verdana" font-size="18" stroke="black" stroke-width="0" x="10.629921" y="95.669289">Bridge</text><rect fill="purple" height="899.9999779999999" opacity="0.5" stroke="lightgray" stroke-width="0" width="7.086614000000001" x="2.8346456" y="88.582675" /><g><g><text fill="black" font-family="Verdana" font-size="18" stroke="black" stroke-width="0" x="31.889763" y="131.102359">Time windows</text><rect fill="purple" height="226.77164800000003" opacity="0.5" stroke="lightgray" stroke-width="0" width="7.086614000000001" x="24.0944876" y="124.01574500000001" /><g><g id="tw0_winter_road"><rect fill="#ADD8E6" height="28.346456" opacity="0.85" stroke="#ADD8E6" stroke-width="2" width="524.409436" x="109.842517" y="145.275587" /><rect fill="#909090" height="10.629921" opacity="0.2" stroke="#ADD8E6" stroke-width="1" width="524.409436" x="109.842517" y="162.992122" /><text fill="black" font-family="Verdana" font-size="15" stroke="black" stroke-width="0" x="113.385824" y="159.448815">tw0_winter_road</text></g><g id="tw1_temperature_&gt;0C째"><rect fill="#ADD8E6" height="28.346456" opacity="0.85" stroke="#ADD8E6" stroke-width="2" width="843.307066" x="783.070847" y="180.708657" /><rect fill="#909090" height="10.629921" opacity="0.2" stroke="#ADD8E6" stroke-width="1" width="843.307066" x="783.070847" y="198.425192" /><text fill="black" font-family="Verdana" font-size="15" stroke="black" stroke-width="0" x="786.614154" y="194.881885">tw1_temperature_&gt;0C째</text></g><g id="tw2_in_river_activity"><rect fill="#ADD8E6" height="28.346456" opacity="0.85" stroke="#ADD8E6" stroke-width="2" width="347.244086" x="1137.401547" y="216.141727" /><rect fill="#909090" height="10.629921" opacity="0.2" stroke="#ADD8E6" stroke-width="1" width="347.244086" x="1137.401547" y="233.858262" /><text fill="black" font-family="Verdana" font-size="15" stroke="black" stroke-width="0" x="1140.944854" y="230.314955">tw2_in_river_activity</text></g><g id="tw3_winter_road"><rect fill="#ADD8E6" height="28.346456" opacity="0.85" stroke="#ADD8E6" stroke-width="2" width="559.842506" x="1952.362157" y="251.574797" /><rect fill="#909090" height="10.629921" opacity="0.2" stroke="#ADD8E6" stroke-width="1" width="559.842506" x="1952.362157" y="269.291332" /><text fill="black" font-family="Verdana" font-size="15" stroke="black" stroke-width="0" x="1955.905464" y="265.748025">tw3_winter_road</text></g><g id="tw4_temperature_&gt;0C째"><rect fill="#ADD8E6" height="28.346456" opacity="0.85" stroke="#ADD8E6" stroke-width="2" width="878.740136" x="2625.590487" y="287.007867" /><rect fill="#909090" height="10.629921" opacity="0.2" stroke="#ADD8E6" stroke-width="1" width="878.740136" x="2625.590487" y="304.724402" /><text fill="black" font-family="Verdana" font-size="15" stroke="black" stroke-width="0" x="2629.133794" y="301.18109499999997">tw4_temperature_&gt;0C째</text></g><g id="tw5_in_river_activity"><rect fill="#ADD8E6" height="28.346456" opacity="0.85" stroke="#ADD8E6" stroke-width="2" width="311.811016" x="3015.354257" y="322.440937" /><rect fill="#909090" height="10.629921" opacity="0.2" stroke="#ADD8E6" stroke-width="1" width="311.811016" x="3015.354257" y="340.157472" /><text fill="black" font-family="Verdana" font-size="15" stroke="black" stroke-width="0" x="3018.897564" y="336.614165">tw5_in_river_activity</text></g></g></g><g><text fill="black" font-family="Verdana" font-size="18" stroke="black" stroke-width="0" x="31.889763" y="379.133849">Side 1</text><rect fill="purple" height="262.204718" opacity="0.5" stroke="lightgray" stroke-width="0" width="7.086614000000001" x="24.0944876" y="372.047235" /><g><g id="a0_mobilize_job_site"><rect fill="#FF8080" height="28.346456" opacity="0.85" stroke="#FF8080" stroke-width="2" width="170.078736" x="109.842517" y="393.307077" /><rect fill="#909090" height="10.629921" opacity="0.2" stroke="#FF8080" stroke-width="1" width="170.078736" x="109.842517" y="411.023612" /><text fill="black" font-family="Verdana" font-size="15" stroke="black" stroke-width="0" x="113.385824" y="407.480305">a0_mobilize_job_site</text></g><g id="a1_build_berm"><rect fill="#FF8080" height="28.346456" opacity="0.85" stroke="#FF8080" stroke-width="2" width="382.677156" x="251.574797" y="428.740147" /><rect fill="#909090" height="10.629921" opacity="0.2" stroke="#FF8080" stroke-width="1" width="382.677156" x="251.574797" y="446.456682" /><text fill="black" font-family="Verdana" font-size="15" stroke="black" stroke-width="0" x="255.118104" y="442.913375">a1_build_berm</text></g><g id="a4_abutment_base"><rect fill="#FF8080" height="28.346456" opacity="0.85" stroke="#FF8080" stroke-width="2" width="63.779526" x="783.070847" y="464.173217" /><rect fill="#909090" height="10.629921" opacity="0.2" stroke="#FF8080" stroke-width="1" width="63.779526" x="783.070847" y="481.889752" /><text fill="black" font-family="Verdana" font-size="15" stroke="black" stroke-width="0" x="786.614154" y="478.346445">a4_abutment_base</text></g><g id="a5_cast-in-place_abutment"><rect fill="#FF8080" height="28.346456" opacity="0.85" stroke="#FF8080" stroke-width="2" width="134.645666" x="818.503917" y="499.606287" /><rect fill="#909090" height="10.629921" opacity="0.2" stroke="#FF8080" stroke-width="1" width="134.645666" x="818.503917" y="517.322822" /><text fill="black" font-family="Verdana" font-size="15" stroke="black" stroke-width="0" x="822.047224" y="513.779515">a5_cast-in-place_abutment</text></g><g id="a2_install_piles"><rect fill="#FF8080" height="28.346456" opacity="0.85" stroke="#FF8080" stroke-width="2" width="99.212596" x="605.905497" y="535.039357" /><rect fill="#909090" height="10.629921" opacity="0.2" stroke="#FF8080" stroke-width="1" width="99.212596" x="605.905497" y="552.755892" /><text fill="black" font-family="Verdana" font-size="15" stroke="black" stroke-width="0" x="609.448804" y="549.212585">a2_install_piles</text></g><g id="a3_cast-in-place_piers"><rect fill="#FF8080" height="28.346456" opacity="0.85" stroke="#FF8080" stroke-width="2" width="347.244086" x="783.070847" y="570.472427" /><rect fill="#909090" height="10.629921" opacity="0.2" stroke="#FF8080" stroke-width="1" width="347.244086" x="783.070847" y="588.188962" /><text fill="black" font-family="Verdana" font-size="15" stroke="black" stroke-width="0" x="786.614154" y="584.645655">a3_cast-in-place_piers</text></g><g id="a6_install_girders_start_depends_of_[a3__a5]_stop_depends_of_[8__12]"><rect fill="#FF8080" height="28.346456" opacity="0.85" stroke="#FF8080" stroke-width="2" width="1303.936976" x="1101.968477" y="605.905497" /><rect fill="#909090" height="10.629921" opacity="0.2" stroke="#FF8080" stroke-width="1" width="1303.936976" x="1101.968477" y="623.622032" /><text fill="black" font-family="Verdana" font-size="15" stroke="black" stroke-width="0" x="1105.511784" y="620.078725">a6_install_girders_start_depends_of_[a3, a5]_stop_depends_of_[8, 12]</text></g></g></g><g><text fill="black" font-family="Verdana" font-size="18" stroke="black" stroke-width="0" x="31.889763" y="662.598409">Side 2</text><rect fill="purple" height="333.07085800000004" opacity="0.5" stroke="lightgray" stroke-width="0" width="7.086614000000001" x="24.0944876" y="655.511795" /><g><g id="a7_abutment_base"><rect fill="#f4aa80" height="28.346456" opacity="0.85" stroke="#f4aa80" stroke-width="2" width="205.511806" x="924.803127" y="676.7716369999999" /><rect fill="#909090" height="10.629921" opacity="0.2" stroke="#f4aa80" stroke-width="1" width="205.511806" x="924.803127" y="694.488172" /><text fill="black" font-family="Verdana" font-size="15" stroke="black" stroke-width="0" x="928.346434" y="690.944865">a7_abutment_base</text></g><g id="a8_cast-in-place_abutment"><rect fill="#f4aa80" height="28.346456" opacity="0.85" stroke="#f4aa80" stroke-width="2" width="134.645666" x="1101.968477" y="712.204707" /><rect fill="#909090" height="10.629921" opacity="0.2" stroke="#f4aa80" stroke-width="1" width="134.645666" x="1101.968477" y="729.921242" /><text fill="black" font-family="Verdana" font-size="15" stroke="black" stroke-width="0" x="1105.511784" y="726.377935">a8_cast-in-place_abutment</text></g><g id="a9_remove_berm_depends_of_[a3]"><rect fill="#f4aa80" height="28.346456" opacity="0.85" stroke="#f4aa80" stroke-width="2" width="170.078736" x="1137.401547" y="747.637777" /><rect fill="#909090" height="10.629921" opacity="0.2" stroke="#f4aa80" stroke-width="1" width="170.078736" x="1137.401547" y="765.354312" /><text fill="black" font-family="Verdana" font-size="15" stroke="black" stroke-width="0" x="1140.944854" y="761.811005">a9_remove_berm_depends_of_[a3]</text></g><g id="a10_build_berm"><rect fill="#f4aa80" height="28.346456" opacity="0.85" stroke="#f4aa80" stroke-width="2" width="134.645666" x="1279.1338269999999" y="783.070847" /><rect fill="#909090" height="10.629921" opacity="0.2" stroke="#f4aa80" stroke-width="1" width="134.645666" x="1279.1338269999999" y="800.787382" /><text fill="black" font-family="Verdana" font-size="15" stroke="black" stroke-width="0" x="1282.677134" y="797.244075">a10_build_berm</text></g><g id="a11_install_piles"><rect fill="#f4aa80" height="28.346456" opacity="0.85" stroke="#f4aa80" stroke-width="2" width="99.212596" x="1385.433037" y="818.503917" /><rect fill="#909090" height="10.629921" opacity="0.2" stroke="#f4aa80" stroke-width="1" width="99.212596" x="1385.433037" y="836.220452" /><text fill="black" font-family="Verdana" font-size="15" stroke="black" stroke-width="0" x="1388.976344" y="832.677145">a11_install_piles</text></g><g id="a12_cast-in-place_piers"><rect fill="#f4aa80" height="28.346456" opacity="0.85" stroke="#f4aa80" stroke-width="2" width="347.244086" x="1456.299177" y="853.936987" /><rect fill="#909090" height="10.629921" opacity="0.2" stroke="#f4aa80" stroke-width="1" width="347.244086" x="1456.299177" y="871.653522" /><text fill="black" font-family="Verdana" font-size="15" stroke="black" stroke-width="0" x="1459.842484" y="868.110215">a12_cast-in-place_piers</text></g><g id="_"><rect fill="#FFFFFF" height="28.346456" opacity="0.85" stroke="#FFFFFF" stroke-width="2" width="28.346456" x="109.842517" y="889.370057" /><rect fill="#909090" height="10.629921" opacity="0.2" stroke="#FFFFFF" stroke-width="1" width="28.346456" x="109.842517" y="907.086592" /><text fill="black" font-family="Verdana" font-size="15" stroke="black" stroke-width="0" x="113.385824" y="903.543285"> </text></g><g id="a14_remove_berm"><rect fill="#f4aa80" height="28.346456" opacity="0.85" stroke="#f4aa80" stroke-width="2" width="240.944876" x="1952.362157" y="924.803127" /><rect fill="#909090" height="10.629921" opacity="0.2" stroke="#f4aa80" stroke-width="1" width="240.944876" x="1952.362157" y="942.519662" /><text fill="black" font-family="Verdana" font-size="15" stroke="black" stroke-width="0" x="1955.905464" y="938.976355">a14_remove_berm</text></g><g id="a15_cast-in-place_deck"><rect fill="#f4aa80" height="28.346456" opacity="0.85" stroke="#f4aa80" stroke-width="2" width="559.842506" x="2625.590487" y="960.236197" /><rect fill="#909090" height="10.629921" opacity="0.2" stroke="#f4aa80" stroke-width="1" width="559.842506" x="2625.590487" y="977.952732" /><text fill="black" font-family="Verdana" font-size="15" stroke="black" stroke-width="0" x="2629.133794" y="974.4094249999999">a15_cast-in-place_deck</text></g></g></g></g></g><g><g /><g><g><line stroke="black" stroke-dasharray="5,3" x1="276.377946" x2="248.03149" y1="407.480305" y2="407.480305" /><marker id="id1" markerHeight="10" markerWidth="10" refX="5" refY="5"><circle cx="5" cy="5" fill="#000000" opacity="0.5" r="5" stroke-width="0" /></marker><line marker-end="url(#id1)" stroke="black" stroke-dasharray="5,3" x1="248.03149" x2="248.03149" y1="407.480305" y2="442.913375" /></g><g><line stroke="black" stroke-dasharray="5,3" x1="630.708646" x2="779.52754" y1="442.913375" y2="442.913375" /><marker id="id2" markerHeight="10" markerWidth="10" refX="5" refY="5"><circle cx="5" cy="5" fill="#000000" opacity="0.5" r="5" stroke-width="0" /></marker><line marker-end="url(#id2)" stroke="black" stroke-dasharray="5,3" x1="779.52754" x2="779.52754" y1="442.913375" y2="478.346445" /></g><g><line stroke="black" stroke-dasharray="5,3" x1="843.307066" x2="814.96061" y1="478.346445" y2="478.346445" /><marker id="id3" markerHeight="10" markerWidth="10" refX="5" refY="5"><circle cx="5" cy="5" fill="#000000" opacity="0.5" r="5" stroke-width="0" /></marker><line marker-end="url(#id3)" stroke="black" stroke-dasharray="5,3" x1="814.96061" x2="814.96061" y1="478.346445" y2="513.779515" /></g><g><line stroke="black" stroke-dasharray="5,3" x1="630.708646" x2="602.3621899999999" y1="442.913375" y2="442.913375" /><marker id="id4" markerHeight="10" markerWidth="10" refX="5" refY="5"><circle cx="5" cy="5" fill="#000000" opacity="0.5" r="5" stroke-width="0" /></marker><line marker-end="url(#id4)" stroke="black" stroke-dasharray="5,3" x1="602.3621899999999" x2="602.3621899999999" y1="442.913375" y2="549.212585" /></g><g><line stroke="black" stroke-dasharray="5,3" x1="701.574786" x2="779.52754" y1="549.212585" y2="549.212585" /><marker id="id5" markerHeight="10" markerWidth="10" refX="5" refY="5"><circle cx="5" cy="5" fill="#000000" opacity="0.5" r="5" stroke-width="0" /></marker><line marker-end="url(#id5)" stroke="black" stroke-dasharray="5,3" x1="779.52754" x2="779.52754" y1="549.212585" y2="584.645655" /></g><g><line stroke="black" stroke-dasharray="5,3" x1="1126.771626" x2="1098.42517" y1="584.645655" y2="584.645655" /><marker id="id6" markerHeight="10" markerWidth="10" refX="5" refY="5"><circle cx="5" cy="5" fill="#000000" opacity="0.5" r="5" stroke-width="0" /></marker><line marker-end="url(#id6)" stroke="black" stroke-dasharray="5,3" x1="1098.42517" x2="1098.42517" y1="584.645655" y2="620.078725" /><line stroke="black" stroke-dasharray="5,3" x1="949.606276" x2="1098.42517" y1="513.779515" y2="513.779515" /><marker id="id7" markerHeight="10" markerWidth="10" refX="5" refY="5"><circle cx="5" cy="5" fill="#000000" opacity="0.5" r="5" stroke-width="0" /></marker><line marker-end="url(#id7)" stroke="black" stroke-dasharray="5,3" x1="1098.42517" x2="1098.42517" y1="513.779515" y2="620.078725" /></g></g><g><g><line stroke="black" stroke-dasharray="5,3" x1="949.606276" x2="921.25982" y1="513.779515" y2="513.779515" /><marker id="id8" markerHeight="10" markerWidth="10" refX="5" refY="5"><circle cx="5" cy="5" fill="#000000" opacity="0.5" r="5" stroke-width="0" /></marker><line marker-end="url(#id8)" stroke="black" stroke-dasharray="5,3" x1="921.25982" x2="921.25982" y1="513.779515" y2="690.944865" /></g><g><line stroke="black" stroke-dasharray="5,3" x1="1126.771626" x2="1098.42517" y1="690.944865" y2="690.944865" /><marker id="id9" markerHeight="10" markerWidth="10" refX="5" refY="5"><circle cx="5" cy="5" fill="#000000" opacity="0.5" r="5" stroke-width="0" /></marker><line marker-end="url(#id9)" stroke="black" stroke-dasharray="5,3" x1="1098.42517" x2="1098.42517" y1="690.944865" y2="726.377935" /></g><g><line stroke="black" stroke-dasharray="5,3" x1="1126.771626" x2="1133.85824" y1="584.645655" y2="584.645655" /><marker id="id10" markerHeight="10" markerWidth="10" refX="5" refY="5"><circle cx="5" cy="5" fill="#000000" opacity="0.5" r="5" stroke-width="0" /></marker><line marker-end="url(#id10)" stroke="black" stroke-dasharray="5,3" x1="1133.85824" x2="1133.85824" y1="584.645655" y2="761.811005" /></g><g><line stroke="black" stroke-dasharray="5,3" x1="1303.936976" x2="1275.59052" y1="761.811005" y2="761.811005" /><marker id="id11" markerHeight="10" markerWidth="10" refX="5" refY="5"><circle cx="5" cy="5" fill="#000000" opacity="0.5" r="5" stroke-width="0" /></marker><line marker-end="url(#id11)" stroke="black" stroke-dasharray="5,3" x1="1275.59052" x2="1275.59052" y1="761.811005" y2="797.244075" /></g><g><line stroke="black" stroke-dasharray="5,3" x1="1410.236186" x2="1381.88973" y1="797.244075" y2="797.244075" /><marker id="id12" markerHeight="10" markerWidth="10" refX="5" refY="5"><circle cx="5" cy="5" fill="#000000" opacity="0.5" r="5" stroke-width="0" /></marker><line marker-end="url(#id12)" stroke="black" stroke-dasharray="5,3" x1="1381.88973" x2="1381.88973" y1="797.244075" y2="832.677145" /></g><g><line stroke="black" stroke-dasharray="5,3" x1="1481.102326" x2="1452.75587" y1="832.677145" y2="832.677145" /><marker id="id13" markerHeight="10" markerWidth="10" refX="5" refY="5"><circle cx="5" cy="5" fill="#000000" opacity="0.5" r="5" stroke-width="0" /></marker><line marker-end="url(#id13)" stroke="black" stroke-dasharray="5,3" x1="1452.75587" x2="1452.75587" y1="832.677145" y2="868.110215" /></g><g><line stroke="black" stroke-dasharray="5,3" x1="1799.9999559999999" x2="1948.8188499999999" y1="868.110215" y2="868.110215" /><marker id="id14" markerHeight="10" markerWidth="10" refX="5" refY="5"><circle cx="5" cy="5" fill="#000000" opacity="0.5" r="5" stroke-width="0" /></marker><line marker-end="url(#id14)" stroke="black" stroke-dasharray="5,3" x1="1948.8188499999999" x2="1948.8188499999999" y1="868.110215" y2="938.976355" /></g><g><line stroke="black" stroke-dasharray="5,3" x1="2402.362146" x2="2622.04718" y1="620.078725" y2="620.078725" /><marker id="id15" markerHeight="10" markerWidth="10" refX="5" refY="5"><circle cx="5" cy="5" fill="#000000" opacity="0.5" r="5" stroke-width="0" /></marker><line marker-end="url(#id15)" stroke="black" stroke-dasharray="5,3" x1="2622.04718" x2="2622.04718" y1="620.078725" y2="974.4094249999999" /></g></g></g></g></svg>